<svg width="78" height="59" viewBox="0 0 78 59" fill="none" xmlns="http://www.w3.org/2000/svg">
<path d="M-1 0H78V39C78 50.0457 69.0457 59 58 59H-1V0Z" fill="white"/>
<path d="M34.39 40.8009L36.7961 27.5817C36.9198 27.2156 37.1601 26.9213 37.5257 26.7023C37.9639 26.4576 38.4956 26.3259 39.121 26.3088L42.633 26.3053L42.4687 27.1916L39.9919 40.8026H34.39V40.8009Z" fill="url(#paint0_linear_14_39)"/>
<path d="M51.406 26.2915L48.7631 40.8007H43.2301L45.8694 26.2915H51.406Z" fill="url(#paint1_linear_14_39)"/>
<path d="M15.1216 23.174H20.6617V23.1706C20.6617 23.1706 23.9952 23.1552 25.2707 23.1552C27.88 23.1552 29.4187 24.8594 29.0707 27.4481C28.758 29.7699 26.6346 31.1473 24.3592 31.1644C20.402 31.1952 19.8632 36.3247 24.0023 36.3247C25.9897 36.3247 28.4542 36.1382 30.8373 34.328C33.4961 32.309 34.1497 30.1994 34.6426 27.472C34.9482 25.7833 34.5631 22.6436 32.9237 20.7906C31.2843 18.9393 29.0672 18.0137 26.2706 18.0137C23.4741 18.0137 16.0915 18 16.0915 18C16.0915 18 15.6109 20.5785 15.1216 23.174Z" fill="url(#paint2_linear_14_39)"/>
<path d="M12 40.7784L14.1623 28.9058C14.1623 28.9058 17.6708 28.9178 18.1142 28.9092C20.1635 28.9092 21.0185 26.2846 22.7816 26.2846C23.0448 26.2846 25.2372 26.2794 25.2372 26.2794C26.283 26.2794 26.6911 27.2068 26.631 27.6243C26.518 28.3942 26.0445 28.8357 25.0252 28.8357L25.0234 28.8425C25.0234 28.8425 24.345 28.8476 23.9652 28.8425C22.0114 28.8203 19.6529 29.6501 19.1194 32.1259C18.4834 35.6198 17.5383 40.7784 17.5383 40.7784H12Z" fill="url(#paint3_linear_14_39)"/>
<path d="M15.4854 26.3649H13.9803C13.8619 26.3649 13.7506 26.4556 13.7294 26.5703C13.71 26.6832 13.7877 26.7756 13.9043 26.7756H15.4077C15.5243 26.7756 15.6374 26.6832 15.6568 26.5703C15.6798 26.4556 15.602 26.3649 15.4854 26.3649ZM15.6762 25.311H14.1711C14.0545 25.311 13.9432 25.4034 13.922 25.5163C13.9008 25.6292 13.9803 25.7216 14.0969 25.7216H15.602C15.7204 25.7216 15.8317 25.6292 15.8529 25.5163C15.8723 25.4034 15.7946 25.311 15.6762 25.311ZM15.2929 27.4172H13.7877C13.6694 27.4172 13.5581 27.5096 13.5369 27.6242C13.5157 27.7372 13.5952 27.8313 13.71 27.8313H15.2152C15.3335 27.8313 15.4448 27.7389 15.466 27.6242C15.489 27.5096 15.4112 27.4172 15.2929 27.4172ZM15.8688 24.2519H14.3654C14.2471 24.2519 14.1358 24.3443 14.1146 24.4572C14.0951 24.5718 14.1729 24.6642 14.2895 24.6642H15.7946C15.9112 24.6642 16.0243 24.5718 16.0437 24.4572C16.0649 24.3443 15.9872 24.2519 15.8688 24.2519ZM38.3489 19.29C38.0556 20.835 37.4585 24.0517 37.4585 24.0517C37.7659 23.7232 38.0697 23.5966 38.3224 23.5161C38.6368 23.4169 39.0361 23.3861 39.6615 23.369L43.1752 23.3639L44.1663 18.0615H40.9281C39.37 18.0632 38.5591 18.6039 38.3489 19.29ZM61.2776 20.2601C59.6347 18.7938 57.5642 18.0632 55.0645 18.0632H47.3674L46.4028 23.3604H51.95L54.0893 23.4152C55.1051 23.4477 55.9655 23.6855 56.6721 24.1321C57.8169 24.8969 58.2303 26.1562 57.9105 27.9065L56.2852 36.8396C55.7093 39.7158 59.4421 40.8485 61.0904 40.8485C61.2653 39.9331 63.2651 28.9023 63.2651 28.9023H63.2563L63.4382 27.9065C64.0353 24.6266 63.3145 22.0755 61.2776 20.2601Z" fill="url(#paint4_linear_14_39)"/>
<path d="M63.9224 18.072C64.1026 18.072 64.2792 18.1165 64.4523 18.2072C64.6255 18.2979 64.7597 18.4262 64.8551 18.5939C64.9523 18.7615 65 18.9361 65 19.1174C65 19.2971 64.9523 19.4699 64.8587 19.6359C64.7633 19.8018 64.6308 19.9301 64.4612 20.0225C64.2898 20.1149 64.1114 20.1594 63.9241 20.1594C63.7369 20.1594 63.5584 20.1132 63.3871 20.0225C63.2157 19.9301 63.0832 19.8018 62.9878 19.6359C62.8924 19.4699 62.8447 19.2971 62.8447 19.1174C62.8447 18.9361 62.8924 18.7615 62.9896 18.5939C63.0868 18.4262 63.221 18.2979 63.3924 18.2072C63.5637 18.1182 63.7404 18.072 63.9224 18.072ZM63.9224 18.2448C63.7704 18.2448 63.6238 18.2825 63.4807 18.3577C63.3376 18.433 63.2245 18.5408 63.1451 18.6794C63.0638 18.8197 63.0232 18.9651 63.0232 19.1157C63.0232 19.2663 63.062 19.41 63.1433 19.5486C63.2228 19.6872 63.3341 19.7933 63.4772 19.8703C63.6203 19.9473 63.7687 19.9866 63.9241 19.9866C64.0796 19.9866 64.228 19.949 64.3711 19.8703C64.5142 19.7933 64.6255 19.6855 64.7032 19.5486C64.7827 19.41 64.8216 19.2663 64.8216 19.1157C64.8216 18.9651 64.7809 18.8197 64.7014 18.6794C64.6219 18.5391 64.5089 18.433 64.3658 18.3577C64.2192 18.2825 64.0725 18.2448 63.9224 18.2448ZM63.4489 19.694V18.5716H63.8464C63.9824 18.5716 64.0814 18.5819 64.1414 18.6024C64.2015 18.6229 64.2509 18.6589 64.288 18.7102C64.3234 18.7615 64.3428 18.8163 64.3428 18.8745C64.3428 18.9566 64.3128 19.0285 64.2527 19.0883C64.1926 19.1499 64.1114 19.1842 64.0125 19.191C64.0531 19.2081 64.0867 19.2269 64.1114 19.2509C64.1573 19.2954 64.2156 19.3689 64.2827 19.4733L64.4241 19.694H64.1962L64.0937 19.5178C64.0125 19.3792 63.9471 19.2919 63.8976 19.256C63.8641 19.2304 63.8128 19.2167 63.7475 19.2167H63.6379V19.694H63.4489ZM63.6362 19.061H63.8641C63.9718 19.061 64.046 19.0456 64.0867 19.0148C64.1255 18.984 64.1467 18.9412 64.1467 18.8899C64.1467 18.8574 64.1379 18.8266 64.1184 18.8009C64.099 18.7752 64.0725 18.7547 64.039 18.7427C64.0054 18.7307 63.9418 18.7239 63.8517 18.7239H63.6397V19.061H63.6362Z" fill="black"/>
<defs>
<linearGradient id="paint0_linear_14_39" x1="12.5378" y1="45.0933" x2="44.5802" y2="30.3075" gradientUnits="userSpaceOnUse">
<stop stop-color="#414042"/>
<stop offset="0.0135" stop-color="#3E3D3F"/>
<stop offset="0.1808" stop-color="#262528"/>
<stop offset="0.3491" stop-color="#141417"/>
<stop offset="0.516" stop-color="#08080A"/>
<stop offset="0.681" stop-color="#020203"/>
<stop offset="0.8433"/>
<stop offset="1"/>
</linearGradient>
<linearGradient id="paint1_linear_14_39" x1="13.8865" y1="48.0164" x2="45.929" y2="33.2306" gradientUnits="userSpaceOnUse">
<stop stop-color="#414042"/>
<stop offset="0.0135" stop-color="#3E3D3F"/>
<stop offset="0.1808" stop-color="#262528"/>
<stop offset="0.3491" stop-color="#141417"/>
<stop offset="0.516" stop-color="#08080A"/>
<stop offset="0.681" stop-color="#020203"/>
<stop offset="0.8433"/>
<stop offset="1"/>
</linearGradient>
<linearGradient id="paint2_linear_14_39" x1="7.13421" y1="33.3831" x2="39.1766" y2="18.5973" gradientUnits="userSpaceOnUse">
<stop stop-color="#414042"/>
<stop offset="0.0135" stop-color="#3E3D3F"/>
<stop offset="0.1808" stop-color="#262528"/>
<stop offset="0.3491" stop-color="#141417"/>
<stop offset="0.516" stop-color="#08080A"/>
<stop offset="0.681" stop-color="#020203"/>
<stop offset="0.8433"/>
<stop offset="1"/>
</linearGradient>
<linearGradient id="paint3_linear_14_39" x1="9.14644" y1="37.7436" x2="41.1887" y2="22.9579" gradientUnits="userSpaceOnUse">
<stop stop-color="#414042"/>
<stop offset="0.0135" stop-color="#3E3D3F"/>
<stop offset="0.1808" stop-color="#262528"/>
<stop offset="0.3491" stop-color="#141417"/>
<stop offset="0.516" stop-color="#08080A"/>
<stop offset="0.681" stop-color="#020203"/>
<stop offset="0.8433"/>
<stop offset="1"/>
</linearGradient>
<linearGradient id="paint4_linear_14_39" x1="63.8745" y1="29.4557" x2="30.6328" y2="29.4557" gradientUnits="userSpaceOnUse">
<stop stop-color="#ED1C24"/>
<stop offset="1" stop-color="#BE1E2D"/>
</linearGradient>
</defs>
</svg>
