<svg width="20" height="20" viewBox="0 0 20 20" fill="none" xmlns="http://www.w3.org/2000/svg">
<rect width="20" height="20" fill="black" fill-opacity="0.4"/>
<path fill-rule="evenodd" clip-rule="evenodd" d="M12.9701 9.02993L13.5 8.50003C14.0523 7.94774 14.0523 7.05231 13.5 6.50003C12.9477 5.94774 12.0523 5.94774 11.5 6.50003L10.9575 7.04252C11.4188 7.88317 12.1173 8.57599 12.9701 9.02993ZM9.50209 8.49795L6.8564 11.1437C6.43134 11.5687 6.21881 11.7812 6.07907 12.0423C5.93934 12.3034 5.88039 12.5982 5.7625 13.1876L5.6471 13.7646C5.58058 14.0972 5.54732 14.2635 5.64193 14.3581C5.73654 14.4527 5.90284 14.4195 6.23545 14.3529L6.23545 14.3529L6.81243 14.2375L6.81244 14.2375C7.40189 14.1197 7.69661 14.0607 7.95771 13.921C8.2188 13.7812 8.43132 13.5687 8.85636 13.1437L8.85638 13.1437L8.8564 13.1436L11.5108 10.4892C10.71 9.96907 10.0267 9.29017 9.50209 8.49795Z" fill="#C4C4C4" fill-opacity="0.7"/>
</svg>
